<?xml version="1.0" encoding="utf-8"?>
<!-- Generator: Adobe Illustrator 25.0.0, SVG Export Plug-In . SVG Version: 6.00 Build 0)  -->
<svg version="1.1" id="Capa_1" xmlns="http://www.w3.org/2000/svg" xmlns:xlink="http://www.w3.org/1999/xlink" x="0px" y="0px"
	 viewBox="0 0 636.9 190.1" style="enable-background:new 0 0 636.9 190.1;" xml:space="preserve">
<style type="text/css">
	.st0{fill:#E5CCD5;}
	.st1{fill:#565654;}
	.st2{font-family:'ArialMT';}
	.st3{font-size:8.3796px;}
	.st4{fill:#CECBE7;}
	.st5{font-size:14.5078px;}
	.st6{enable-background:new    ;}
	.st7{fill:#F2F2AF;}
</style>
<rect x="14.9" y="16.2" class="st0" width="88.4" height="37.1"/>
<text transform="matrix(1 0 0 1 30.2876 37.4249)" class="st1 st2 st3">Visita Comercial</text>
<text transform="matrix(1 0 0 1 107.3135 39.0206)" class="st4 st2 st5">&gt;</text>
<rect x="118" y="16.2" class="st0" width="88.4" height="37.1"/>
<text transform="matrix(1 0 0 1 139.4717 32.1954)" class="st1 st2 st3">Presentación</text>
<text transform="matrix(1 0 0 1 135.3447 42.254)" class="st1 st2 st3">Estudio técnico</text>
<text transform="matrix(1 0 0 1 210.1919 39.0206)" class="st4 st2 st5">&gt;</text>
<rect x="323.3" y="16.2" class="st0" width="88.4" height="37.1"/>
<text transform="matrix(1 0 0 1 344.8332 32.1954)" class="st1 st2 st3">Presentación</text>
<text transform="matrix(1 0 0 1 340.1999 42.254)" class="st1 st2 st3">de presupuesto</text>
<text transform="matrix(1 0 0 1 414.6765 39.0206)" class="st4 st2 st5">&gt;</text>
<text transform="matrix(1 0 0 1 516.9597 39.0206)" class="st4 st2 st5">&gt;</text>
<rect x="425.3" y="16.2" class="st0" width="88.4" height="37.1"/>
<text transform="matrix(1 0 0 1 449.6921 32.1954)" class="st1 st2 st3">Aceptación</text>
<text transform="matrix(1 0 0 1 442.1941 42.254)" class="st1 st2 st3">de presupuesto</text>
<text transform="matrix(1 0 0 1 621.1521 39.0206)" class="st4 st2 st5">&gt;</text>
<rect x="527.6" y="16.2" class="st0" width="88.4" height="37.1"/>
<text transform="matrix(1 0 0 1 561.8845 32.1954)" class="st1 st2 st3">Firma</text>
<text transform="matrix(1 0 0 1 551.4714 42.254)" class="st1 st2 st3">de contrato</text>
<rect x="14.9" y="72.8" class="st4" width="88.4" height="37.1"/>
<text transform="matrix(1 0 0 1 38.2271 88.7638)" class="st1 st2 st3">Tramitación</text>
<text transform="matrix(1 0 0 1 37.769 98.8229)" class="st1 st2 st3">de pemisos</text>
<text transform="matrix(1 0 0 1 107.3135 95.59)" class="st4 st2 st5">&gt;</text>
<rect x="117.7" y="72.8" class="st4" width="88.4" height="37.1"/>
<text transform="matrix(1 0 0 1 145.0571 93.7921)" class="st1 st2 st3">Ejecución</text>
<text transform="matrix(1 0 0 1 209.9526 95.59)" class="st4 st2 st5">&gt;</text>
<rect x="219.6" y="16.2" class="st0" width="88.4" height="37.1"/>
<text transform="matrix(1 0 0 1 234.3087 32.8629)" class="st6"><tspan x="0" y="0" class="st1 st2 st3">Visita Comercial</tspan><tspan x="15.6" y="10.1" class="st1 st2 st3">Técnica</tspan></text>
<text transform="matrix(1 0 0 1 311.8196 39.0206)" class="st4 st2 st5">&gt;</text>
<rect x="219.3" y="72.8" class="st4" width="88.4" height="37.1"/>
<text transform="matrix(1 0 0 1 311.5804 95.59)" class="st4 st2 st5">&gt;</text>
<rect x="14.9" y="129.4" class="st7" width="88.4" height="37.1"/>
<text transform="matrix(1 0 0 1 39.2485 145.3331)" class="st1 st2 st3">Aceptación</text>
<text transform="matrix(1 0 0 1 26.6206 155.3917)" class="st1 st2 st3">de Mantenimiento</text>
<text transform="matrix(1 0 0 1 107.3135 152.1593)" class="st4 st2 st5">&gt;</text>
<rect x="118" y="129.4" class="st7" width="498" height="37.1"/>
<text transform="matrix(0.998 0 0 1 339.595 150.3615)" class="st1 st2 st3">Mantenimiento</text>
<rect x="322.8" y="72.8" class="st4" width="88.4" height="37.1"/>
<text transform="matrix(1 0 0 1 345.6086 92.8229)" class="st1 st2 st3">Legalización</text>
<text transform="matrix(1 0 0 1 251.0984 88.7638)" class="st1 st2 st3">Puesta</text>
<text transform="matrix(1 0 0 1 244.3831 98.8229)" class="st1 st2 st3">en marcha</text>
<text transform="matrix(1 0 0 1 414.1999 95.59)" class="st4 st2 st5">&gt;</text>
<text transform="matrix(1 0 0 1 517.197 95.59)" class="st4 st2 st5">&gt;</text>
<rect x="424.6" y="72.8" class="st4" width="88.4" height="37.1"/>
<text transform="matrix(1 0 0 1 440.8168 93.7228)" class="st1 st2 st3">Bonificación IBI</text>
<text transform="matrix(1 0 0 1 620.196 95.59)" class="st4 st2 st5">&gt;</text>
<rect x="527.6" y="72.8" class="st4" width="88.4" height="37.1"/>
<text transform="matrix(1 0 0 1 552.8347 83.7369)" class="st1 st2 st3">Entrega de</text>
<text transform="matrix(1 0 0 1 544.1316 93.7955)" class="st1 st2 st3">documentación</text>
<text transform="matrix(1 0 0 1 564.2585 103.8444)" class="st1 st2 st3">final</text>
</svg>
